<?xml version="1.0" encoding="UTF-8" standalone="no"?>
<!DOCTYPE svg PUBLIC "-//W3C//DTD SVG 1.1//EN"
 "http://www.w3.org/Graphics/SVG/1.1/DTD/svg11.dtd">
<!-- Generated by graphviz version 11.0.0 (20240428.1522)
 -->
<!-- Title: C:/Users/harshn/Desktop/PrintUtils/PrintUtils.hpp Pages: 1 -->
<svg width="230pt" height="96pt"
 viewBox="0.00 0.00 230.12 96.00" xmlns="http://www.w3.org/2000/svg" xmlns:xlink="http://www.w3.org/1999/xlink">
<g id="graph0" class="graph" transform="scale(1 1) rotate(0) translate(4 92)">
<title>C:/Users/harshn/Desktop/PrintUtils/PrintUtils.hpp</title>
<!-- Node1 -->
<g id="Node000001" class="node">
<title>Node1</title>
<g id="a_Node000001"><a xlink:title="Contains utility functions for printing vectors and matrices.">
<polygon fill="#999999" stroke="#666666" points="170.75,-88 45.25,-88 45.25,-56 170.75,-56 170.75,-88"/>
<text text-anchor="start" x="53.25" y="-74.5" font-family="Helvetica,sans-Serif" font-size="10.00">C:/Users/harshn/Desktop</text>
<text text-anchor="middle" x="108" y="-62.5" font-family="Helvetica,sans-Serif" font-size="10.00">/PrintUtils/PrintUtils.hpp</text>
</a>
</g>
</g>
<!-- Node2 -->
<g id="Node000002" class="node">
<title>Node2</title>
<g id="a_Node000002"><a xlink:title=" ">
<polygon fill="#e0e0e0" stroke="#999999" points="40,-20 0,-20 0,0 40,0 40,-20"/>
<text text-anchor="middle" x="20" y="-6.5" font-family="Helvetica,sans-Serif" font-size="10.00">string</text>
</a>
</g>
</g>
<!-- Node1&#45;&gt;Node2 -->
<g id="edge1_Node000001_Node000002" class="edge">
<title>Node1&#45;&gt;Node2</title>
<g id="a_edge1_Node000001_Node000002"><a xlink:title=" ">
<path fill="none" stroke="#63b8ff" d="M85.34,-55.55C72.35,-46.69 56.09,-35.61 43.04,-26.71"/>
<polygon fill="#63b8ff" stroke="#63b8ff" points="45.28,-24 35.05,-21.26 41.34,-29.79 45.28,-24"/>
</a>
</g>
</g>
<!-- Node3 -->
<g id="Node000003" class="node">
<title>Node3</title>
<g id="a_Node000003"><a xlink:title=" ">
<polygon fill="#e0e0e0" stroke="#999999" points="99.75,-20 58.25,-20 58.25,0 99.75,0 99.75,-20"/>
<text text-anchor="middle" x="79" y="-6.5" font-family="Helvetica,sans-Serif" font-size="10.00">vector</text>
</a>
</g>
</g>
<!-- Node1&#45;&gt;Node3 -->
<g id="edge2_Node000001_Node000003" class="edge">
<title>Node1&#45;&gt;Node3</title>
<g id="a_edge2_Node000001_Node000003"><a xlink:title=" ">
<path fill="none" stroke="#63b8ff" d="M100.53,-55.55C96.88,-48 92.45,-38.82 88.55,-30.77"/>
<polygon fill="#63b8ff" stroke="#63b8ff" points="91.71,-29.25 84.21,-21.77 85.41,-32.3 91.71,-29.25"/>
</a>
</g>
</g>
<!-- Node4 -->
<g id="Node000004" class="node">
<title>Node4</title>
<g id="a_Node000004"><a xlink:title=" ">
<polygon fill="#e0e0e0" stroke="#999999" points="155.88,-20 118.12,-20 118.12,0 155.88,0 155.88,-20"/>
<text text-anchor="middle" x="137" y="-6.5" font-family="Helvetica,sans-Serif" font-size="10.00">array</text>
</a>
</g>
</g>
<!-- Node1&#45;&gt;Node4 -->
<g id="edge3_Node000001_Node000004" class="edge">
<title>Node1&#45;&gt;Node4</title>
<g id="a_edge3_Node000001_Node000004"><a xlink:title=" ">
<path fill="none" stroke="#63b8ff" d="M115.47,-55.55C119.12,-48 123.55,-38.82 127.45,-30.77"/>
<polygon fill="#63b8ff" stroke="#63b8ff" points="130.59,-32.3 131.79,-21.77 124.29,-29.25 130.59,-32.3"/>
</a>
</g>
</g>
<!-- Node5 -->
<g id="Node000005" class="node">
<title>Node5</title>
<g id="a_Node000005"><a xlink:title=" ">
<polygon fill="#e0e0e0" stroke="#999999" points="222.12,-20 173.88,-20 173.88,0 222.12,0 222.12,-20"/>
<text text-anchor="middle" x="198" y="-6.5" font-family="Helvetica,sans-Serif" font-size="10.00">fstream</text>
</a>
</g>
</g>
<!-- Node1&#45;&gt;Node5 -->
<g id="edge4_Node000001_Node000005" class="edge">
<title>Node1&#45;&gt;Node5</title>
<g id="a_edge4_Node000001_Node000005"><a xlink:title=" ">
<path fill="none" stroke="#63b8ff" d="M131.18,-55.55C144.46,-46.69 161.09,-35.61 174.43,-26.71"/>
<polygon fill="#63b8ff" stroke="#63b8ff" points="176.25,-29.71 182.63,-21.25 172.37,-23.88 176.25,-29.71"/>
</a>
</g>
</g>
</g>
</svg>
